<?xml version="1.0" encoding="utf-8"?>
<!-- Generator: Adobe Illustrator 27.5.0, SVG Export Plug-In . SVG Version: 6.00 Build 0)  -->
<svg version="1.1" id="Layer_2_00000088127853524122566280000000357777774091208587_"
	 xmlns="http://www.w3.org/2000/svg" xmlns:xlink="http://www.w3.org/1999/xlink" x="0px" y="0px" viewBox="0 0 860.4 305.3"
	 style="enable-background:new 0 0 860.4 305.3;" xml:space="preserve">
<style type="text/css">
	.st0{fill:#FFFFFF;}
</style>
<g id="Layer_1-2">
	<g>
		<g>
			<g>
				<path class="st0" d="M67.8,44.7h51.3l-7.9,30.4c-1.2,4.2-3.5,7.6-6.8,10.2c-3.3,2.6-7.2,3.9-11.6,3.9H68.9
					c-5.4,0-10.2,1.6-14.4,4.8c-4.2,3.2-7.1,7.5-8.7,12.9c-1.1,4.1-1.2,7.9-0.3,11.6c0.8,3.6,2.3,6.8,4.4,9.6c2.1,2.8,4.8,5,8.2,6.7
					c3.3,1.7,7,2.5,10.9,2.5h14.5c2.7,0,4.9,1.1,6.7,3.3c1.7,2.2,2.2,4.6,1.5,7.4l-9.1,33.6H66.7c-10.9,0-20.9-2.4-30.1-7.1
					c-9.1-4.8-16.8-11.1-22.8-18.9S3.7,138.6,1.5,128.5c-2.2-10.1-1.9-20.4,0.8-31l0.9-3.4c2-7.2,5-13.9,9.2-20.1
					s9.1-11.3,14.8-15.7s12-7.7,18.9-10.1S60.3,44.7,67.8,44.7"/>
				<path class="st0" d="M93.7,181.5l44.7-167.4c1.2-4.2,3.5-7.6,6.8-10.2c3.3-2.6,7.2-3.9,11.6-3.9h47.4C215,0,225,2.4,234.2,7.1
					c9.1,4.8,16.7,11.1,22.8,18.9c6,7.9,10.2,16.8,12.5,26.9c2.3,10.1,2,20.4-0.9,31l-0.9,3.4c-2,7.2-5,13.9-9.1,20.1
					c-4.1,6.1-9,11.4-14.6,15.8c-5.7,4.4-12,7.8-18.9,10.2c-7,2.4-14.2,3.6-21.8,3.6h-41.1l8.2-30.6c1.2-4.1,3.5-7.4,6.8-10
					c3.3-2.6,7.2-3.9,11.6-3.9h13.1c5.4,0,10.3-1.7,14.6-5c4.3-3.3,7.1-7.6,8.5-12.9c1.1-3.8,1.2-7.5,0.3-11.1s-2.3-6.8-4.4-9.6
					c-2.1-2.8-4.8-5.1-8.2-6.8c-3.3-1.7-7-2.6-10.9-2.6h-25.4l-33.1,123.2c-1.2,4.1-3.5,7.4-6.8,10c-3.3,2.6-7.1,3.9-11.3,3.9
					L93.7,181.5L93.7,181.5z"/>
				<path class="st0" d="M376.6,92.1l0.7-2.5c0.3-1.2,0.1-2.2-0.6-3.1c-0.7-0.8-1.6-1.3-2.8-1.3h-73.7c-3.2,0-6-0.7-8.6-2
					c-2.6-1.4-4.7-3.1-6.4-5.3c-1.7-2.2-2.8-4.7-3.4-7.6c-0.6-2.9-0.5-5.8,0.2-8.8l4.5-17.2h99.8c6.2,0,11.9,1.4,17,4.1
					c5.1,2.7,9.4,6.3,12.8,10.7s5.8,9.4,7,15.1c1.3,5.7,1.2,11.5-0.3,17.6l-17.9,66.7c-1.8,6.8-5.5,12.3-11,16.6s-11.8,6.4-18.9,6.4
					l-73.7-0.2c-6.5,0-12.5-1.4-17.9-4.2c-5.4-2.8-9.9-6.5-13.4-11.1c-3.5-4.6-5.9-9.9-7.3-15.9c-1.4-6-1.2-12.1,0.5-18.3l0.9-3.4
					c1-4.2,2.8-8.2,5.3-11.8c2.5-3.6,5.4-6.7,8.7-9.3c3.3-2.6,7-4.6,11.1-6s8.4-2.2,12.9-2.2h61.9l-4.5,17c-1.2,4.1-3.5,7.4-6.8,10
					c-3.3,2.6-7.1,3.8-11.4,3.8h-27.7c-2.6,0-4.2,1.3-5,3.9c-0.5,1.7-0.1,3.1,0.9,4.4c1.1,1.3,2.4,1.9,4.1,1.9h44.7
					c1.7,0,3.1-0.4,4.3-1.4c1.2-0.9,2-2.1,2.3-3.6l0.5-1.8L376.6,92.1L376.6,92.1z"/>
				<path class="st0" d="M508.6,44.7c11,0,21.1,2.4,30.3,7.1c9.2,4.8,16.7,11.1,22.8,18.9c6,7.9,10.2,16.9,12.4,27
					c2.2,10.1,1.8,20.5-1,31.1l-11.3,42.6c-0.8,3-2.4,5.4-4.9,7.3c-2.5,1.8-5.3,2.7-8.3,2.7H524c-2.9,0-5.1-1.1-6.8-3.3
					c-1.7-2.2-2.1-4.6-1.4-7.4l13.6-51.5c1.1-3.8,1.2-7.5,0.3-11.1c-0.8-3.6-2.3-6.8-4.4-9.6c-2.1-2.8-4.8-5.1-8.2-6.8
					c-3.3-1.7-7-2.6-10.9-2.6h-25.4l-22,82.4c-0.8,3-2.4,5.4-4.9,7.3c-2.5,1.8-5.3,2.7-8.5,2.7h-24.3c-2.7,0-5-1.1-6.7-3.3
					c-1.7-2.2-2.2-4.6-1.5-7.4l33.6-126.1L508.6,44.7L508.6,44.7z"/>
				<path class="st0" d="M642.2,87.9c-1.8,1.4-3.1,3.3-3.9,5.6L628.1,132c-0.6,2.1-0.2,4.1,1.1,5.9c1.4,1.8,3.2,2.7,5.5,2.7h93.9
					l-7.3,27c-1.2,4.1-3.5,7.4-6.8,10c-3.3,2.6-7.1,3.9-11.3,3.9h-85.5c-6.2,0-11.9-1.3-17-4c-5.1-2.6-9.4-6.2-12.8-10.7
					s-5.8-9.5-7-15.2s-1.1-11.4,0.6-17.4l13.8-51.5c1.5-5.6,3.8-10.7,7-15.4c3.2-4.7,6.9-8.7,11.2-12c4.3-3.3,9.2-5.9,14.5-7.8
					c5.4-1.9,10.9-2.8,16.7-2.8h60.6c6.2,0,11.9,1.4,17,4.1c5.1,2.7,9.4,6.3,12.8,10.7c3.4,4.4,5.7,9.5,6.9,15.2
					c1.2,5.7,1.1,11.6-0.4,17.5l-4.1,15.4c-1.8,6.8-5.5,12.3-11,16.5c-5.5,4.2-11.8,6.2-18.7,6.2h-68.5l4.5-16.8
					c1.1-4.1,3.2-7.4,6.6-10c3.3-2.6,7.2-3.9,11.6-3.9h27.7c2.6,0,4.2-1.3,5-3.9l0.9-3.4c0.5-1.7,0.2-3.2-0.9-4.5
					c-1.1-1.4-2.4-2-4.1-2h-42.2C646.1,85.8,644,86.5,642.2,87.9"/>
				<path class="st0" d="M728.4,181.5L774,10.2c0.8-3,2.4-5.5,4.9-7.4c2.5-1.9,5.3-2.8,8.5-2.8h24.3c2.9,0,5.2,1.1,6.9,3.3
					s2.2,4.6,1.5,7.4L786,137c-1.7,6.7-4.3,12.7-8,18.1c-3.7,5.4-8.1,10.1-13.2,13.9c-5.1,3.9-10.7,6.9-16.9,9.1
					C741.7,180.4,735.2,181.5,728.4,181.5"/>
			</g>
			<path class="st0" d="M829.2,15.9c0-2.8,0.7-5.4,2.1-7.8c1.4-2.4,3.3-4.3,5.7-5.7c2.4-1.4,5-2.1,7.8-2.1s5.4,0.7,7.8,2.1
				c2.4,1.4,4.3,3.3,5.7,5.7c1.4,2.4,2.1,5,2.1,7.8s-0.7,5.3-2,7.7c-1.3,2.4-3.2,4.3-5.6,5.8c-2.4,1.4-5.1,2.2-8,2.2
				s-5.5-0.7-7.9-2.1c-2.4-1.4-4.3-3.4-5.7-5.7S829.2,18.7,829.2,15.9 M831.4,15.9c0,2.4,0.6,4.6,1.8,6.7c1.2,2.1,2.8,3.7,4.9,4.9
				c2.1,1.2,4.3,1.8,6.7,1.8s4.6-0.6,6.7-1.8c2.1-1.2,3.7-2.8,4.9-4.9c1.2-2,1.8-4.3,1.8-6.7s-0.6-4.6-1.8-6.7
				c-1.2-2.1-2.8-3.7-4.9-4.9c-2.1-1.2-4.3-1.8-6.7-1.8s-4.6,0.6-6.7,1.8c-2.1,1.2-3.7,2.8-4.9,4.9C832,11.2,831.4,13.5,831.4,15.9
				 M851.2,12.1c0,1.1-0.3,2.1-0.9,2.9c-0.6,0.9-1.4,1.5-2.5,1.9l4.9,8.2h-3.5l-4.3-7.4h-2.8v7.4h-3.1V6.7h5.4c2.3,0,4,0.5,5,1.3
				C850.6,8.9,851.2,10.3,851.2,12.1 M842.2,15.3h2.2c1.1,0,2-0.3,2.7-0.9s1-1.3,1-2.2c0-1-0.3-1.8-0.9-2.2
				c-0.6-0.4-1.5-0.7-2.8-0.7h-2.2L842.2,15.3L842.2,15.3z"/>
		</g>
		<g>
			<g>
				<path class="st0" d="M483.2,273.5c-1-1-2.4-1.7-3.8-1.8c-0.2,0-0.4,0-0.6,0c-0.2,0-0.4,0-0.6,0c-1.4,0.1-2.8,0.8-3.8,1.8
					c-2.4,2.4-2.4,6.4,0,8.9c1.2,1.2,2.8,1.8,4.4,1.8s3.2-0.6,4.4-1.8C485.7,279.9,485.7,275.9,483.2,273.5"/>
				<path class="st0" d="M518.4,244.5c0-1.6-0.6-3.2-1.8-4.4c-1.2-1.2-2.8-1.8-4.4-1.8s-3.2,0.6-4.4,1.8c-0.6,0.6-1,1.2-1.3,2
					c-0.3,0.8-0.5,1.6-0.5,2.5c0,1.6,0.6,3.2,1.8,4.4c1.1,1.1,2.6,1.8,4.2,1.8c0.1,0,0.1,0,0.2,0c0.1,0,0.2,0,0.2,0
					c1.6-0.1,3.1-0.7,4.2-1.8C517.8,247.8,518.4,246.1,518.4,244.5"/>
				<path class="st0" d="M516.6,282.3c2.6-2.6,2.3-7-0.5-9.3c-0.7-0.6-1.5-1-2.4-1.2c-0.8-0.2-1.6-0.2-2.4-0.2
					c-1.9-0.1-3.7-0.8-5.3-1.9c-1.6-1.2-2.9-2.8-3.6-4.7c-0.3-0.9-0.5-1.8-0.6-2.8c-0.1-0.8,0-1.6-0.2-2.4c-0.3-1.3-1-2.5-2-3.3
					c-1.2-1-2.6-1.5-4.2-1.6c-1.9-0.1-3.7-0.5-5.4-1.5c-1.6-1-3-2.4-3.8-4.1c-0.5-0.9-0.8-1.8-1-2.8c-0.1-0.8-0.1-1.6-0.2-2.4
					c-0.1-1.7-1-3.4-2.3-4.4c-2.9-2.3-7.3-1.6-9.3,1.6c-1.9,3.2-0.6,7.4,2.8,9c1.7,0.8,3.5,0.4,5.3,0.9c1.8,0.5,3.5,1.5,4.8,2.9
					s2.2,3.1,2.6,5c0.3,1.6,0.1,3.3,0.9,4.9c0.3,0.6,0.7,1.2,1.2,1.7c0.6,0.7,1.5,1.2,2.3,1.5c1.1,0.4,2.2,0.3,3.3,0.4
					c2.5,0.3,4.9,1.5,6.5,3.4c1.7,1.9,2.6,4.3,2.6,6.9c0,2.4,1.3,4.7,3.5,5.7C511.8,284.7,514.7,284.2,516.6,282.3"/>
				<path class="st0" d="M517.1,265.4c2.1-2.1,2.4-5.7,0.6-8.1c-0.8-1.1-2-2-3.3-2.3c-1.4-0.4-2.9-0.2-4.2-0.5
					c-3.1-0.8-5.8-3.1-7.1-6c-0.6-1.4-0.7-2.9-0.8-4.4c-0.1-1.5-0.7-2.9-1.7-4c-2-2.1-5.4-2.5-7.8-1c-2.6,1.6-3.6,4.9-2.5,7.7
					c0.5,1.4,1.6,2.5,2.9,3.2c0.7,0.4,1.4,0.6,2.1,0.7c0.8,0.1,1.5,0,2.3,0.1c3.2,0.5,6,2.4,7.6,5.2c0.8,1.3,1.2,2.8,1.3,4.3
					c0.1,0.8,0,1.6,0.2,2.4c0.2,0.7,0.5,1.4,0.9,1.9c1.7,2.4,4.9,3.4,7.6,2.2C515.8,266.4,516.5,266,517.1,265.4"/>
				<polygon class="st0" points="106.8,239.8 119.4,239.8 127.5,270.1 136.8,239.8 147,239.8 156.8,270.1 164.9,239.8 177.3,239.8 
					162.7,283.9 151.8,283.9 141.8,254.8 132.3,284 121.5,284 				"/>
				<path class="st0" d="M209.9,257.1c-0.3-3.1-1.3-5.4-3-7.1s-4-2.5-6.8-2.5c-2.8,0-5.1,0.8-6.9,2.5c-1.8,1.6-2.9,4-3.5,7.1
					L209.9,257.1L209.9,257.1z M203.6,285.3c-5.1,0-9.6-0.9-13.5-2.8c-3.9-1.9-6.8-4.5-9-8.1c-2.1-3.5-3.2-7.7-3.2-12.5
					c0-4.5,0.9-8.5,2.8-12c1.9-3.6,4.5-6.4,7.9-8.4c3.4-2,7.4-3.1,11.9-3.1c4.2,0,7.8,0.9,11,2.6c3.1,1.8,5.6,4.3,7.4,7.6
					c1.8,3.3,2.6,7.2,2.7,11.7c0,1.9-0.1,3.6-0.4,5.2l-31.1,0c1.5,6.6,6.5,9.9,15,9.9c2.7,0,5.2-0.3,7.8-0.8
					c2.5-0.5,4.8-1.4,6.8-2.4l1.2,9.5c-2.1,1.1-4.6,2-7.6,2.7C210,284.9,206.8,285.3,203.6,285.3"/>
				<path class="st0" d="M251.9,274.5c3.5,0,6.3-1.2,8.5-3.6c2.2-2.4,3.2-5.4,3.2-9.1s-1.1-6.8-3.3-9.2c-2.2-2.4-5-3.6-8.4-3.5
					c-3.4,0-6.2,1.2-8.4,3.6s-3.3,5.4-3.3,9.2c0,3.7,1.1,6.7,3.3,9.1C245.6,273.3,248.5,274.5,251.9,274.5 M254.6,285.2
					c-3.1,0-5.8-0.6-8.3-1.9c-2.5-1.2-4.4-3-5.8-5.2l-0.2,5.7h-11.5l-0.1-70.2h12.1l0,31.3c3.2-4.4,7.9-6.6,14.3-6.6
					c3.9,0,7.4,0.9,10.4,2.9c3.1,1.9,5.5,4.6,7.3,8.2c1.8,3.6,2.7,7.6,2.7,12.3c0,4.3-0.9,8.2-2.6,11.8s-4.2,6.4-7.5,8.6
					C262.3,284.2,258.7,285.2,254.6,285.2"/>
				<path class="st0" d="M304.4,274.4c3.5,0,6.3-1.2,8.5-3.6c2.2-2.4,3.2-5.4,3.2-9.1s-1.1-6.8-3.3-9.2c-2.2-2.4-5-3.6-8.4-3.6
					c-3.4,0-6.2,1.2-8.4,3.6c-2.2,2.4-3.3,5.4-3.3,9.2s1.1,6.7,3.3,9.1C298.1,273.3,300.9,274.4,304.4,274.4 M281.3,239.7h11.5
					l0.2,5.7c3-4.8,7.9-7.1,14.6-7.1c3.9,0,7.4,0.9,10.5,2.9c3.1,1.9,5.5,4.6,7.3,8.2c1.8,3.6,2.7,7.7,2.7,12.3
					c0,4.3-0.9,8.2-2.6,11.8s-4.2,6.4-7.5,8.6c-3.2,2.2-6.9,3.3-10.9,3.3c-2.9,0-5.6-0.6-8-1.7c-2.4-1.1-4.3-2.7-5.7-4.8l0,26.4
					h-12.1L281.3,239.7L281.3,239.7z"/>
				<path class="st0" d="M334.1,239.6h11.6l0.1,7.3c1.2-2.6,2.8-4.6,4.9-6c2-1.4,4.4-2.1,7.2-2.1c1.9,0,3.5,0.3,5.1,0.9l-1,11.4
					c-1.8-0.7-3.6-1-5.4-1c-3.3,0-5.9,1.2-7.7,3.6c-1.8,2.4-2.7,5.7-2.7,10v20.1h-12L334.1,239.6L334.1,239.6z"/>
				<path class="st0" d="M388.3,274.4c3.4,0,6.2-1.2,8.4-3.6s3.3-5.4,3.3-9.2s-1.1-6.7-3.3-9.1c-2.2-2.4-5-3.6-8.5-3.5
					c-3.5,0-6.3,1.2-8.5,3.6c-2.2,2.4-3.2,5.4-3.2,9.1c0,3.8,1.1,6.8,3.3,9.2C382.1,273.2,384.9,274.4,388.3,274.4 M388.3,285.1
					c-4.3,0-8.3-1-11.9-2.9s-6.5-4.7-8.6-8.3c-2.1-3.6-3.2-7.6-3.2-12.2c0-4.2,1-8.1,3-11.7c2-3.6,4.8-6.4,8.5-8.6
					c3.6-2.1,7.7-3.2,12.3-3.2c4.3,0,8.3,1,11.9,2.9c3.6,1.9,6.5,4.7,8.6,8.3c2.1,3.6,3.2,7.6,3.2,12.2c0,4.3-1,8.2-3,11.8
					c-2,3.6-4.8,6.4-8.5,8.5C397,284,392.9,285.1,388.3,285.1"/>
				<path class="st0" d="M433,285.1c-3.4,0-6.5-0.4-9.5-1.2c-3-0.8-5.3-1.8-6.9-3.1l1.5-9.8c2,1.3,4.3,2.4,6.9,3.2s5.2,1.2,7.6,1.2
					c4.9,0,7.4-1.2,7.4-3.7c0-1.3-0.5-2.3-1.6-3c-1-0.7-3.2-1.5-6.5-2.4c-5.2-1.4-8.9-3.3-11.1-5.5c-2.2-2.2-3.4-5.2-3.4-9
					c0-4.2,1.6-7.6,4.8-10c3.2-2.4,7.5-3.6,13.1-3.7c2.7,0,5.4,0.3,8.1,0.9c2.7,0.6,5,1.5,6.7,2.5l-1.4,9.5c-1.8-1-3.9-1.9-6.2-2.5
					c-2.3-0.6-4.6-0.9-6.7-0.9c-4.2,0-6.3,1.1-6.3,3.4c0,1.3,0.5,2.3,1.5,3c1,0.7,3,1.5,6,2.4c5.6,1.6,9.5,3.5,11.8,5.7
					c2.3,2.2,3.4,5.2,3.4,9.1c0,4.3-1.7,7.6-5.1,10.1C443.6,283.9,439,285.1,433,285.1"/>
				<path class="st0" d="M461.1,238.1h0.8c0.5,0,0.8-0.1,1-0.2c0.2-0.1,0.3-0.4,0.3-0.8c0-0.6-0.4-0.9-1.3-0.9h-0.9L461.1,238.1
					L461.1,238.1z M460,235.2h2c0.7,0,1.3,0.2,1.7,0.5c0.4,0.3,0.6,0.8,0.6,1.4c0,0.8-0.4,1.4-1.1,1.7l1.5,2.4h-1.2l-1.3-2.2h-1.1
					v2.2H460L460,235.2L460,235.2z M462.1,243.5c0.9,0,1.7-0.2,2.5-0.7c0.8-0.4,1.4-1.1,1.9-1.8c0.5-0.8,0.7-1.7,0.7-2.7
					c0-0.9-0.2-1.8-0.6-2.6c-0.4-0.8-1-1.4-1.8-1.9c-0.8-0.5-1.7-0.7-2.6-0.7c-0.9,0-1.8,0.2-2.5,0.6c-0.8,0.4-1.4,1.1-1.9,1.8
					c-0.5,0.8-0.7,1.7-0.7,2.7c0,0.9,0.2,1.8,0.6,2.6s1,1.4,1.8,1.9C460.3,243.3,461.1,243.6,462.1,243.5 M462.1,244.6
					c-1.1,0-2.1-0.3-3.1-0.8c-1-0.5-1.7-1.3-2.3-2.2s-0.9-2-0.9-3.2c0-1.1,0.3-2.2,0.8-3.1s1.3-1.7,2.2-2.3s2-0.9,3.2-0.9
					c1.1,0,2.2,0.3,3.1,0.8c1,0.5,1.7,1.3,2.3,2.2c0.6,1,0.9,2,0.9,3.2c0,1.1-0.3,2.1-0.8,3.1c-0.5,0.9-1.3,1.7-2.2,2.3
					S463.3,244.6,462.1,244.6"/>
			</g>
			<g>
				<path class="st0" d="M573.7,284h-6.9v-61h6.9v23.5c3.8-5.2,8.8-7.8,14.9-7.8s10.5,2.1,14.2,6.4c3.7,4.2,5.5,9.9,5.5,16.9
					c0,7-1.8,12.7-5.4,16.9s-8.4,6.3-14.2,6.3c-6.2,0-11.1-2.6-14.9-7.7V284z M573.7,272.1c1.2,2,3.1,3.6,5.5,4.9c2.5,1.3,5,2,7.6,2
					c4.4,0,7.9-1.6,10.4-4.8s3.8-7.2,3.8-12.2s-1.3-9.1-3.8-12.3s-6-4.8-10.4-4.8c-2.6,0-5.2,0.7-7.6,2.1c-2.5,1.4-4.3,3.1-5.5,5.1
					V272.1z"/>
				<path class="st0" d="M626.2,284h-6.9v-44.2h6.9v7.1c4.1-5.4,9-8.1,14.7-8.1v7c-0.8-0.2-1.8-0.3-2.7-0.3c-2.1,0-4.3,0.7-6.8,2.2
					s-4.2,3.1-5.2,4.8L626.2,284L626.2,284z"/>
				<path class="st0" d="M684,284h-6.9v-5c-3.7,4.1-8.6,6.1-14.6,6.1c-4.1,0-7.7-1.3-10.8-3.9s-4.7-6.2-4.7-10.7s1.5-8.2,4.6-10.7
					s6.7-3.8,10.8-3.8c6.3,0,11.2,2,14.6,6v-7.9c0-2.9-1-5.2-3.1-6.9s-4.8-2.5-8-2.5c-5.2,0-9.7,2-13.5,6.1l-3.2-4.8
					c4.7-4.9,10.6-7.3,17.7-7.3c5.1,0,9.2,1.2,12.3,3.7c3.2,2.4,4.8,6.2,4.8,11.2L684,284L684,284z M665,280.2
					c5.5,0,9.5-1.8,12.2-5.5v-8.3c-2.6-3.7-6.7-5.5-12.2-5.5c-3.2,0-5.8,0.9-7.8,2.7c-2,1.8-3.1,4.1-3.1,7s1,5.1,3.1,6.9
					C659.2,279.3,661.8,280.2,665,280.2L665,280.2z"/>
				<path class="st0" d="M734.4,284h-6.9v-28.9c0-3.7-0.8-6.4-2.6-7.9c-1.7-1.6-4.2-2.3-7.3-2.3c-2.6,0-5,0.7-7.5,2
					c-2.4,1.3-4.3,3-5.6,4.9v32.3h-6.9v-44.2h6.9v6.4c1.7-2,4-3.8,6.9-5.3c2.9-1.5,5.8-2.2,8.9-2.2c9.4,0,14.1,4.8,14.1,14.3
					L734.4,284L734.4,284z"/>
				<path class="st0" d="M787,284h-6.9v-6.6c-3.8,5.1-8.8,7.7-14.9,7.7s-10.6-2.1-14.2-6.3c-3.6-4.2-5.4-9.8-5.4-16.9
					s1.8-12.6,5.4-16.9c3.6-4.2,8.4-6.4,14.2-6.4s11.1,2.6,14.9,7.8v-23.5h6.9V284z M766.9,279c2.7,0,5.2-0.7,7.7-2s4.3-3,5.6-4.9
					v-20c-1.3-2-3.2-3.7-5.6-5.1c-2.5-1.4-5-2.1-7.6-2.1c-4.3,0-7.8,1.6-10.3,4.8s-3.8,7.3-3.8,12.3s1.3,9.1,3.8,12.2
					S762.5,279,766.9,279L766.9,279z"/>
			</g>
			<path class="st0" d="M69.2,283.2h-6.5v-4.8c-3.5,3.9-8.2,5.8-13.9,5.8c-3.9,0-7.3-1.2-10.2-3.7c-3-2.5-4.4-5.9-4.4-10.2
				s1.5-7.8,4.4-10.2c2.9-2.4,6.3-3.6,10.3-3.6c6,0,10.6,1.9,13.9,5.7v-7.6c0-2.8-1-4.9-3-6.5s-4.5-2.3-7.6-2.3
				c-4.9,0-9.2,1.9-12.8,5.8l-3-4.5c4.5-4.6,10-6.9,16.8-6.9c4.8,0,8.7,1.2,11.7,3.5c3,2.3,4.5,5.9,4.5,10.7L69.2,283.2L69.2,283.2z
				 M51.1,279.6c5.2,0,9.1-1.7,11.5-5.2v-7.9c-2.5-3.5-6.3-5.2-11.5-5.2c-3,0-5.5,0.9-7.4,2.6c-1.9,1.7-2.9,3.9-2.9,6.6
				s1,4.9,2.9,6.5C45.6,278.7,48.1,279.6,51.1,279.6L51.1,279.6z"/>
		</g>
	</g>
</g>
</svg>
